# AST/ASF file generated using VICON BodyLanguage
# -----------------------------------------------
:version 1.10
:name VICON
:units
  mass 1.0
  length 0.45
  angle deg
:documentation
   .ast/.asf automatically generated from VICON data using
   VICON BodyBuilder and BodyLanguage model FoxedUp or BRILLIANT.MOD
:root
   order TX TY TZ RX RY RZ
   axis XYZ
   position 0 0 0  
   orientation 0 0 0 
:bonedata
  begin
     id 1 
     name lhipjoint
     direction 0.661853 -0.702389 0.261917 
     length 2.64193 
     axis 0 0 0  XYZ
  end
  begin
     id 2 
     name lfemur
     direction 0.34202 -0.939693 0  
     length 7.01722  
     axis 0 0 20  XYZ
    dof rx ry rz
    limits (-160.0 20.0)
           (-70.0 70.0)
           (-60.0 70.0)
  end
  begin
     id 3 
     name ltibia
     direction 0.34202 -0.939693 0   
     length 8.25008   
     axis 0 0 20   XYZ
    dof rx
    limits (-10.0 170.0)
  end
  begin
     id 4 
     name lfoot
     direction 0.0709916 -0.195048 0.978221   
     length 2.31941   
     axis -90 7.62852e-016 20   XYZ
    dof rx rz
    limits (-45.0 90.0)
           (-70.0 20.0)
  end
  begin
     id 5 
     name ltoes
     direction 1.53586e-011 -4.22017e-011 1   
     length 1.16486   
     axis -90 7.62852e-016 20   XYZ
    dof rx
    limits (-90.0 20.0)
  end
  begin
     id 6 
     name rhipjoint
     direction -0.638185 -0.721362 0.268992   
     length 2.57244  
     axis 0 0 0  XYZ 
  end
  begin
     id 7 
     name rfemur
     direction -0.34202 -0.939693 0   
     length 7.07017   
     axis 0 0 -20   XYZ
    dof rx ry rz
    limits (-160.0 20.0)
           (-70.0 70.0)
           (-70.0 60.0)
  end
  begin
     id 8 
     name rtibia
     direction -0.34202 -0.939693 0   
     length 8.20386   
     axis 0 0 -20   XYZ
    dof rx
    limits (-10.0 170.0)
 end
 begin
     id 9 
     name rfoot
     direction -0.0822429 -0.225961 0.970658   
     length 2.32215  
     axis -90 -7.62852e-016 -20   XYZ
    dof rx rz
    limits (-45.0 90.0)
           (-20.0 70.0)
  end
  begin
     id 10 
     name rtoes
     direction -1.53597e-011 -4.21689e-011 1   
     length 1.16333   
     axis -90 -7.62852e-016 -20   XYZ
    dof rx
    limits (-90.0 20.0)
  end
  begin
     id 11 
     name lowerback
     direction -0.0131557 0.998589 -0.0514484   
     length 2.14993   
     axis 0 0 0   XYZ
    dof rx ry rz
    limits (-20.0 45.0)
           (-30.0 30.0)
           (-30.0 30.0)
  end
  begin
     id 12 
     name upperback
     direction -0.000776481 0.999993 0.00352685   
     length 2.15301   
     axis 0 0 0   XYZ
    dof rx ry rz
    limits (-20.0 45.0)
           (-30.0 30.0)
           (-30.0 30.0)
  end
  begin
     id 13 
     name thorax
     direction 0.00438186 0.999609 0.0276143   
     length 2.15424   
     axis 0 0 0   XYZ
    dof rx ry rz
    limits (-20.0 45.0)
           (-30.0 30.0)
           (-30.0 30.0)
  end
  begin
     id 14 
     name lowerneck
     direction -0.0488006 0.998094 0.0377807   
     length 1.90481   
     axis 0 0 0   XYZ
    dof rx ry rz
    limits (-20.0 45.0)
           (-30.0 30.0)
           (-30.0 30.0)
  end
  begin
     id 15 
     name upperneck
     direction 0.0443769 0.990702 -0.12861   
     length 1.91305   
     axis 0 0 0   XYZ
    dof rx ry rz
    limits (-20.0 45.0)
           (-30.0 30.0)
           (-30.0 30.0)
  end
  begin
     id 16
     name head
     direction 0.0165599 0.998647 -0.0492982  
     length 1.92369  
     axis 0 0 0   XYZ
    dof rx ry rz
    limits (-20.0 45.0)
           (-30.0 30.0)
           (-30.0 30.0)
  end
  begin
     id 17 
     name lclavicle
     direction 0.911936 0.410197 -0.0105506  
     length 3.52622  
     axis 0 0 0   XYZ
    dof ry rz
    limits (-20.0 10.0)
           (0.0 20.0)
  end
  begin
     id 18 
     name lhumerus
     direction 1 -4.48974e-011 -2.48591e-028   
     length 5.47651   
     axis 180 -30 -90   XYZ
    dof rx ry rz
    limits (-60.0 90.0)
           (-90.0 90.0)
           (-90.0 90.0)
  end
  begin
     id 19
     name lradius
     direction 1 -4.48938e-011 -4.40099e-027   
     length 3.09058   
     axis 180 -30 -90   XYZ
    dof rx
    limits (-10.0 170.0)
  end
  begin
     id 20
     name lwrist
     direction 1 -4.49042e-011 -2.99852e-027   
     length 1.54529   
     axis 1.95339e-015 90 90   XYZ
    dof ry
    limits (-180.0 0.0)
 end
  begin
     id 21 
     name lhand
     direction 1 -4.48815e-011 -5.98193e-027   
     length 0.771611   
     axis 3.82337e-015 90 90   XYZ
    dof rx rz
    limits (-90.0 90.0)
           (-45.0 45.0)
  end
  begin
     id 22 
     name lfingers
     direction 1 -4.49034e-011 -1.1993e-026   
     length 0.622093   
     axis 7.64668e-015 90 90   XYZ
    dof rx
    limits (0.0 90.0)
  end
  begin
     id 23
     name lthumb
     direction 0.707107 -6.34867e-011 0.707107   
     length 0.893204   
     axis -90 45 -1.62303e-014   XYZ
    dof rx rz
    limits (-45.0 45.0)
           (-45.0 45.0)
  end
  begin
     id 24 
     name rclavicle
     direction -0.93442 0.355634 -0.0195692   
     length 3.62463  
     axis 0 0 0   XYZ 
    dof ry rz
    limits (-10.0 20.0)
           (-20.0 0.0)
  end
  begin
     id 25 
     name rhumerus
     direction -1 -4.48957e-011 -1.19147e-027  
     length 5.14182   
     axis 180 30 90   XYZ
    dof rx ry rz
    limits (-90.0 60.0)
           (-90.0 90.0)
           (-90.0 90.0)
  end
  begin
     id 26 
     name rradius
     direction -1 -4.48952e-011 -3.81062e-027   
     length 3.35565   
     axis 180 30 90   XYZ
    dof rx
    limits (-10.0 170.0)
  end
  begin
     id 27 
     name rwrist
     direction -1 -4.48973e-011 -2.99621e-027   
     length 1.67782   
     axis 1.95339e-015 -90 -90   XYZ
    dof ry
    limits (-180.0 0.0)
  end
  begin
     id 28
     name rhand
     direction -1 -4.48895e-011 -5.98727e-027   
     length 0.801042   
     axis 3.82337e-015 -90 -90   XYZ
    dof rx rz
    limits (-90.0 90.0)
           (-45.0 45.0)
  end
  begin
     id 29
     name rfingers
     direction -1 -4.49065e-011 -1.19972e-026   
     length 0.645821   
     axis 7.64668e-015 -90 -90   XYZ
    dof rx
    limits (0.0 90.0)
  end
  begin
     id 30
     name rthumb
     direction -0.707107 -6.34957e-011 0.707107   
     length 0.927273   
     axis -90 -45 1.62303e-014   XYZ
    dof rx rz
    limits (-45.0 45.0)
           (-45.0 45.0)
  end
:hierarchy
  begin
    root lhipjoint rhipjoint lowerback
    lhipjoint lfemur
    lfemur ltibia
    ltibia lfoot
    lfoot ltoes
    rhipjoint rfemur
    rfemur rtibia
    rtibia rfoot
    rfoot rtoes
    lowerback upperback
    upperback thorax
    thorax lowerneck lclavicle rclavicle
    lowerneck upperneck
    upperneck head
    lclavicle lhumerus
    lhumerus lradius
    lradius lwrist
    lwrist lhand lthumb
    lhand lfingers
    rclavicle rhumerus
    rhumerus rradius
    rradius rwrist
    rwrist rhand rthumb
    rhand rfingers
  end

#!OML:ASF E:\Style4\Style4.ASF
:FULLY-SPECIFIED
:DEGREES
1
root -0.657914 18.2064 -0.0918744 4.57867 0.0311999 1.82115
lowerback 3.74861 2.00547 0.219407
upperback 1.06562 2.68062 0.123411
thorax -1.00213 1.33855 -0.117965
lowerneck -5.44157 -3.9883 -5.47384
upperneck 13.2857 -5.23835 3.17397
head 5.11625 -2.63169 1.55881
rclavicle 1.8487e-014 5.96354e-015
rhumerus -35.2659 15.7103 -83.6402
rradius 113.351
rwrist 12.6491
rhand 8.33519 15.3394
rfingers 7.12502
rthumb 33.5457 -11.5441
lclavicle 1.8487e-014 5.96354e-015
lhumerus -40.3301 -26.4608 86.8169
lradius 114.785
lwrist 4.33605
lhand -0.162423 30.0503
lfingers 7.12502
lthumb 25.4348 58.3733
rfemur -7.58979 3.03366 19.625
rtibia 18.0146
rfoot -13.4863 -20.2932
rtoes -10.2512
lfemur -4.62634 -5.59188 -18.0173
ltibia 11.8337
lfoot -12.505 17.8717
ltoes -17.4347
2
root -0.662479 18.2046 -0.0880195 4.57724 0.0542729 1.79692
lowerback 3.75026 2.00488 0.273029
upperback 1.03779 2.68166 0.100643
thorax -1.02802 1.33895 -0.171924
lowerneck -5.41775 -4.00157 -5.43696
upperneck 13.2536 -5.26487 3.20339
head 5.10313 -2.64126 1.56089
rclavicle -2.89232e-014 1.55052e-014
rhumerus -35.2924 15.6465 -83.7054
rradius 113.35
rwrist 12.6792
rhand 8.27549 15.3844
rfingers 7.12502
rthumb 33.4889 -11.5113
lclavicle -2.89232e-014 1.55052e-014
lhumerus -40.3254 -26.4834 86.7442
lradius 114.873
lwrist 4.40773
lhand -0.0106276 30.24
lfingers 7.12502
lthumb 25.5802 58.5422
rfemur -7.58142 3.00663 19.6775
rtibia 18.0292
rfoot -13.4984 -20.3226
rtoes -10.4753
lfemur -4.65096 -5.51622 -17.971
ltibia 11.8973
lfoot -12.3175 17.8017
ltoes -18.0513
3
root -0.667093 18.2035 -0.0840879 4.57971 0.0538148 1.77137
lowerback 3.74624 2.00497 0.3196
upperback 1.00877 2.68325 0.0701834
thorax -1.05191 1.3396 -0.229645
lowerneck -5.45207 -4.01553 -5.3472
upperneck 13.3285 -5.29559 3.22065
head 5.13132 -2.65064 1.54852
rclavicle -4.11981e-014 5.56597e-015
rhumerus -35.3143 15.5828 -83.8007
rradius 113.365
rwrist 12.6603
rhand 8.24399 15.3998
rfingers 7.12502
rthumb 33.459 -11.5024
lclavicle -4.11981e-014 5.56597e-015
lhumerus -40.2911 -26.4859 86.6562
lradius 114.912
lwrist 4.46736
lhand -0.00116308 30.3755
lfingers 7.12502
lthumb 25.5893 58.6765
rfemur -7.56631 3.00562 19.7301
rtibia 18.0199
rfoot -13.4515 -20.3737
rtoes -10.7881
lfemur -4.69018 -5.47835 -17.922
ltibia 11.9814
lfoot -12.4008 17.7969
ltoes -18.3554
4
root -0.671556 18.2021 -0.080579 4.54243 0.0420807 1.69469
lowerback 3.76057 2.01455 0.410643
upperback 1.01559 2.69962 0.0809094
thorax -1.04914 1.34766 -0.270598
lowerneck -5.44305 -4.03005 -5.33031
upperneck 13.3109 -5.32038 3.24422
head 5.12557 -2.66055 1.55174
rclavicle 3.98563e-014 -1.27222e-014
rhumerus -35.2724 15.5547 -83.7976
rradius 113.384
rwrist 12.6032
rhand 8.27224 15.36
rfingers 7.12502
rthumb 33.4858 -11.5364
lclavicle 3.98563e-014 -1.27222e-014
lhumerus -40.2282 -26.4732 86.6417
lradius 114.929
lwrist 4.5071
lhand -0.223047 30.3633
lfingers 7.12502
lthumb 25.3767 58.6945
rfemur -7.52754 3.04213 19.8371
rtibia 18.0466
rfoot -13.5125 -20.403
rtoes -10.4165
lfemur -4.6601 -5.44861 -17.8266
ltibia 12.0226
lfoot -12.5469 17.8351
ltoes -18.4771
5
root -0.676638 18.2009 -0.0765132 4.52436 0.00362736 1.66931
lowerback 3.73875 2.02608 0.404557
upperback 1.02609 2.71491 0.105252
thorax -1.02754 1.35538 -0.241889
lowerneck -5.42339 -4.0242 -5.33737
upperneck 13.263 -5.31143 3.24234
head 5.10717 -2.65679 1.5536
rclavicle -1.70458e-014 1.98785e-014
rhumerus -35.2367 15.5947 -83.7805
rradius 113.418
rwrist 12.5543
rhand 8.22607 15.3288
rfingers 7.12502
rthumb 33.4419 -11.5771
lclavicle -1.70458e-014 1.98785e-014
lhumerus -40.1772 -26.4162 86.6506
lradius 114.927
lwrist 4.53829
lhand -0.278585 30.3382
lfingers 7.12502
lthumb 25.3235 58.677
rfemur -7.51514 3.1133 19.886
rtibia 18.0959
rfoot -13.6118 -20.3833
rtoes -9.92959
lfemur -4.61346 -5.42283 -17.7845
ltibia 11.999
lfoot -12.5607 17.791
ltoes -18.0437
